<?xml version="1.0" encoding="utf-8"?>
<!-- Generator: Adobe Illustrator 15.0.0, SVG Export Plug-In . SVG Version: 6.00 Build 0)  -->
<!DOCTYPE svg PUBLIC "-//W3C//DTD SVG 1.1//EN" "http://www.w3.org/Graphics/SVG/1.1/DTD/svg11.dtd">
<svg version="1.1" xmlns="http://www.w3.org/2000/svg" xmlns:xlink="http://www.w3.org/1999/xlink" x="0px" y="0px" width="512px"
	 height="512px" viewBox="0 0 512 512" enable-background="new 0 0 512 512" xml:space="preserve">
<g id="Ebene_2">
</g>
<g id="Layer_1" xmlns:cc="http://creativecommons.org/ns#" xmlns:dc="http://purl.org/dc/elements/1.1/" xmlns:inkscape="http://www.inkscape.org/namespaces/inkscape" xmlns:sodipodi="http://sodipodi.sourceforge.net/DTD/sodipodi-0.dtd" xmlns:rdf="http://www.w3.org/1999/02/22-rdf-syntax-ns#" xmlns:svg="http://www.w3.org/2000/svg">
	<g id="g5071" transform="translate(1337.5001,-329.71448)">
		<g id="g5012" transform="matrix(0.34051609,0,0,0.35174261,-704.62329,570.07201)">
			<path id="path4925" fill="#FFFFFF" d="M-1475.95,134.059l-218.175,377.942h418.574l218.206-377.942H-1475.95z"/>
			<g id="g4998" transform="translate(2256.2501,-1145.5312)">
				<path id="path4992" fill="#FFFFFF" d="M-3291.282,1272.904v6.377v365.873v6.375h6.407h41.656h6.407v-6.375v-15.467
					c17.695,18.241,40.443,27.844,67.22,27.844c33.121,0,62.136-13.393,85.592-39.283c23.763-26.228,35.344-63.151,35.344-109.624
					c0-19.723-2.747-38.344-8.28-55.813c-5.523-17.422-13.215-32.511-23.158-45.094c-10.041-12.705-22.906-22.608-38.312-29.563
					c-15.372-6.938-31.776-10.406-48.938-10.406c-25.599,0-47.954,8.915-66.22,25.937v-114.405v-6.377h-6.407h-44.906H-3291.282
					L-3291.282,1272.904z M-3171.344,1417.436c17.663,0,32.1,7.08,44.874,22.408c12.321,14.781,19.129,38.772,19.129,72.532
					c0,32.872-6.998,56.663-19.972,72.124l-0.029,0.061c-13.373,15.914-28.24,23.249-46.001,23.249
					c-22.083,0-38.642-9.878-51.938-31.623c-7.54-12.324-12.031-34.366-12.031-65.563c0-31.331,6.938-54.342,19.969-69.875
					c13.382-15.95,28.217-23.313,46.001-23.313H-3171.344z"/>
				<path id="path4988" fill="#FFFFFF" d="M-2893.064,1367.75c-23.792,0-46.064,5.628-66.375,16.875
					c-20.574,11.391-36.055,28.738-46.03,51.313c-9.906,22.422-14.781,48.364-14.781,77.688c0,45.316,11.388,81.119,34.782,106.281
					c23.236,24.987,54.496,37.625,92.157,37.625c30.213,0,56.363-9.181,77.405-27.408c21.099-18.271,34.179-43.711,39.187-75.311
					l1.032-6.499l-6.501-0.844l-44.186-5.75l-6.249-0.813l-0.906,6.28c-3.029,21.514-10.041,36.545-20.439,46.062
					c-10.643,9.748-23.514,14.565-39.844,14.565c-20.396,0-35.978-7.091-48.531-21.939c-12.146-14.368-18.971-38.711-18.971-73.498
					c0-34.249,7.015-58.281,19.657-72.782c13.031-14.951,29.212-22.158,50.314-22.158c13.694,0,24.759,3.951,34.188,11.969
					c9.292,7.907,16.06,19.884,20.001,36.751l1.342,5.783l5.845-0.908l43.687-6.749l6.53-1l-1.248-6.499
					c-5.383-27.952-17.904-50.249-37.469-65.813C-2838.047,1375.396-2863.204,1367.75-2893.064,1367.75z"/>
			</g>
		</g>
	</g>
</g>
</svg>
