<?xml version="1.0" encoding="utf-8"?>
<!-- Generator: Adobe Illustrator 15.0.0, SVG Export Plug-In . SVG Version: 6.00 Build 0)  -->
<!DOCTYPE svg PUBLIC "-//W3C//DTD SVG 1.1//EN" "http://www.w3.org/Graphics/SVG/1.1/DTD/svg11.dtd">
<svg version="1.1" id="Ebene_1" xmlns="http://www.w3.org/2000/svg" xmlns:xlink="http://www.w3.org/1999/xlink" x="0px" y="0px"
	 width="400px" height="132.938px" viewBox="56 334.707 400 132.938" enable-background="new 56 334.707 400 132.938"
	 xml:space="preserve">
<g id="Ebene_2">
</g>
<g id="Layer_1" xmlns:cc="http://creativecommons.org/ns#" xmlns:dc="http://purl.org/dc/elements/1.1/" xmlns:inkscape="http://www.inkscape.org/namespaces/inkscape" xmlns:sodipodi="http://sodipodi.sourceforge.net/DTD/sodipodi-0.dtd" xmlns:rdf="http://www.w3.org/1999/02/22-rdf-syntax-ns#" xmlns:svg="http://www.w3.org/2000/svg">
	<g id="g5071" transform="translate(1337.5001,-329.71448)">
		<g id="g5012" transform="matrix(0.34051609,0,0,0.35174261,-704.62329,570.07201)">
			<path id="path4925" fill="#FFFFFF" d="M-1475.95,268.234l-218.175,377.939h418.574l218.206-377.939H-1475.95z"/>
			<g id="g4998" transform="translate(2256.2501,-1145.5312)">
				<path id="path4992" fill="#FFFFFF" d="M-3291.282,1407.08v6.375v365.873v6.375h6.407h41.656h6.407v-6.375v-15.464
					c17.695,18.241,40.443,27.841,67.22,27.841c33.121,0,62.136-13.393,85.592-39.285c23.763-26.225,35.344-63.151,35.344-109.622
					c0-19.723-2.747-38.341-8.28-55.81c-5.523-17.424-13.215-32.511-23.158-45.099c-10.041-12.705-22.906-22.605-38.312-29.563
					c-15.372-6.935-31.776-10.406-48.938-10.406c-25.599,0-47.954,8.918-66.22,25.937v-114.402v-6.375h-6.407h-44.906H-3291.282
					L-3291.282,1407.08z M-3171.344,1551.611c17.663,0,32.1,7.08,44.874,22.405c12.321,14.781,19.129,38.775,19.129,72.535
					c0,32.872-6.998,56.66-19.972,72.124l-0.029,0.061c-13.373,15.914-28.24,23.249-46.001,23.249
					c-22.083,0-38.642-9.878-51.938-31.623c-7.54-12.327-12.031-34.366-12.031-65.566c0-31.328,6.938-54.339,19.969-69.875
					c13.382-15.947,28.217-23.31,46.001-23.31H-3171.344z"/>
				<path id="path4988" fill="#FFFFFF" d="M-2893.064,1501.926c-23.792,0-46.064,5.625-66.375,16.875
					c-20.574,11.389-36.055,28.735-46.03,51.313c-9.906,22.422-14.781,48.364-14.781,77.688c0,45.316,11.388,81.119,34.782,106.279
					c23.236,24.987,54.496,37.625,92.157,37.625c30.213,0,56.363-9.179,77.405-27.408c21.099-18.268,34.179-43.711,39.187-75.311
					l1.032-6.497l-6.501-0.844l-44.186-5.753l-6.249-0.811l-0.906,6.28c-3.029,21.511-10.041,36.542-20.437,46.06
					c-10.646,9.75-23.517,14.565-39.844,14.565c-20.396,0-35.98-7.091-48.533-21.939c-12.146-14.365-18.971-38.708-18.971-73.496
					c0-34.249,7.015-58.281,19.657-72.785c13.031-14.948,29.212-22.155,50.314-22.155c13.694,0,24.759,3.948,34.188,11.966
					c9.292,7.907,16.06,19.884,20.001,36.753l1.342,5.78l5.845-0.905l43.689-6.746l6.527-1.005l-1.248-6.497
					c-5.383-27.952-17.904-50.246-37.469-65.811C-2838.047,1509.572-2863.204,1501.926-2893.064,1501.926z"/>
			</g>
		</g>
	</g>
</g>
</svg>
