<?xml version="1.0" encoding="utf-8"?>
<!-- Generator: Adobe Illustrator 15.0.0, SVG Export Plug-In . SVG Version: 6.00 Build 0)  -->
<!DOCTYPE svg PUBLIC "-//W3C//DTD SVG 1.1//EN" "http://www.w3.org/Graphics/SVG/1.1/DTD/svg11.dtd">
<svg version="1.1" id="Ebene_1" xmlns="http://www.w3.org/2000/svg" xmlns:xlink="http://www.w3.org/1999/xlink" x="0px" y="0px"
	 width="400.133px" height="400.134px" viewBox="799.915 450.156 400.133 400.134"
	 enable-background="new 799.915 450.156 400.133 400.134" xml:space="preserve" class="svg social-link">
<g id="Flat_copy">
	<path fill="#FFFFFF" d="M1150.051,450.156H849.933c-28.243,0-50.019,21.776-50.019,50.02V800.27
		c0,28.244,21.776,50.021,50.019,50.021h300.096c28.243,0,50.019-21.777,50.019-50.021V500.176
		C1200.073,471.908,1178.271,450.156,1150.051,450.156z M1000.29,571.626c44.371,0,80.345,34.857,80.345,77.843
		c0,42.983-35.974,77.842-80.345,77.842c-44.347,0-80.318-34.883-80.318-77.842C919.971,606.459,955.943,571.626,1000.29,571.626z
		 M1150.051,787.759c0,8.771-3.741,12.512-12.512,12.512H862.443c-8.745,0-12.513-3.741-12.513-12.512V612.702l31.167,6.788
		c-3.344,10.876-5.153,22.372-5.153,34.313c0,66.494,55.694,120.479,124.319,120.479c68.673,0,124.342-53.959,124.342-120.479
		c0-11.941-1.808-23.438-5.152-34.313l30.571-6.788v175.057H1150.051L1150.051,787.759z M1150.051,562.683
		c0,6.912-5.599,12.512-12.512,12.512h-50.019c-6.912,0-12.513-5.6-12.513-12.512v-50.02c0-6.912,5.601-12.512,12.513-12.512h50.019
		c6.913,0,12.512,5.6,12.512,12.512V562.683L1150.051,562.683z"/>
</g>
</svg>