<?xml version="1.0" encoding="utf-8"?>
<!-- Generator: Adobe Illustrator 15.0.0, SVG Export Plug-In . SVG Version: 6.00 Build 0)  -->
<!DOCTYPE svg PUBLIC "-//W3C//DTD SVG 1.1//EN" "http://www.w3.org/Graphics/SVG/1.1/DTD/svg11.dtd">
<svg version="1.1" id="Ebene_1" xmlns="http://www.w3.org/2000/svg" xmlns:xlink="http://www.w3.org/1999/xlink" x="0px" y="0px"
	 width="2000px" height="1300px" viewBox="0 0 2000 1300" enable-background="new 0 0 2000 1300" xml:space="preserve">
<g id="Flat_copy">
	<g>
	</g>
	<path fill="#FFFFFF" d="M1246.065,322.156H753.935c-46.313,0-82.022,35.709-82.022,82.021v492.091
		c0,46.313,35.71,82.022,82.022,82.022h492.091c46.313,0,82.021-35.71,82.021-82.022V404.178
		C1328.088,357.825,1292.338,322.156,1246.065,322.156z M1000.487,521.341c72.76,0,131.747,57.159,131.747,127.644
		s-58.987,127.644-131.747,127.644c-72.719,0-131.706-57.2-131.706-127.644C868.781,578.459,927.769,521.341,1000.487,521.341z
		 M1246.065,875.753c0,14.382-6.134,20.516-20.516,20.516h-451.1c-14.341,0-20.516-6.134-20.516-20.516V588.697l51.106,11.131
		c-5.484,17.834-8.45,36.685-8.45,56.266c0,109.037,91.325,197.56,203.856,197.56c112.612,0,203.896-88.481,203.896-197.56
		c0-19.581-2.966-38.432-8.45-56.266l50.131-11.131v287.056H1246.065z M1246.065,506.675c0,11.335-9.181,20.516-20.516,20.516
		h-82.021c-11.334,0-20.516-9.181-20.516-20.516v-82.021c0-11.335,9.182-20.516,20.516-20.516h82.021
		c11.335,0,20.516,9.181,20.516,20.516V506.675L1246.065,506.675z"/>
</g>
</svg>
