<?xml version="1.0" encoding="utf-8"?>
<!-- Generator: Adobe Illustrator 15.0.0, SVG Export Plug-In . SVG Version: 6.00 Build 0)  -->
<!DOCTYPE svg PUBLIC "-//W3C//DTD SVG 1.1//EN" "http://www.w3.org/Graphics/SVG/1.1/DTD/svg11.dtd">
<svg version="1.1" id="Layer_1" xmlns="http://www.w3.org/2000/svg" xmlns:xlink="http://www.w3.org/1999/xlink" x="0px" y="0px"
	 width="400px" height="173.768px" viewBox="0 0 400 173.768" enable-background="new 0 0 400 173.768" xml:space="preserve">
<path fill="none" stroke="#FFFFFF" stroke-miterlimit="10" d="M45.808,4.834V106.98h94.154l61.844,60.801h148.355
	c0,0,26.925-26.59,34.744-35.786c1.406-1.654,1.512-7.127,0-8.685c-22.585-23.278-99.367-100.062-99.367-100.062l-29.186,28.837
	l76.089,75.046L218.83,127.48c0,0-39.636-41.25-56.631-55.939c-2.37-2.048-8.689-3.968-11.813-4.169
	c-19.449-1.245-62.539-0.347-62.539-0.347L87.5,46.526c0,0,52.115,0,69.139-0.347c2.603-0.053,7.399,2.829,9.381,4.517
	c15.567,13.25,46.903,44.473,46.903,44.473l29.881-29.187c0,0-29.686-34.251-42.039-42.734c-9.525-6.54-30.836-18.274-42.388-18.414
	C129.887,4.486,45.808,4.834,45.808,4.834z"/>
</svg>
