<?xml version="1.0" encoding="utf-8"?>
<!-- Generator: Adobe Illustrator 15.0.0, SVG Export Plug-In . SVG Version: 6.00 Build 0)  -->
<!DOCTYPE svg PUBLIC "-//W3C//DTD SVG 1.1//EN" "http://www.w3.org/Graphics/SVG/1.1/DTD/svg11.dtd">
<svg version="1.1" id="Layer_1" xmlns="http://www.w3.org/2000/svg" xmlns:xlink="http://www.w3.org/1999/xlink" x="0px" y="0px"
	 width="400px" height="173.768px" viewBox="0 0 400 173.768" enable-background="new 0 0 400 173.768" xml:space="preserve">
<path fill="#FFFFFF" d="M45.808,4.834V106.98h94.154l61.845,60.802h148.354c0,0,26.925-26.591,34.744-35.786
	c1.405-1.654,1.512-7.127,0-8.686c-22.585-23.277-99.367-100.062-99.367-100.062l-29.187,28.837l76.09,75.046L218.83,127.48
	c0,0-39.636-41.25-56.631-55.938c-2.37-2.048-8.689-3.968-11.813-4.169c-19.449-1.245-62.539-0.348-62.539-0.348L87.5,46.526
	c0,0,52.115,0,69.139-0.347c2.603-0.053,7.399,2.829,9.381,4.517c15.567,13.25,46.903,44.474,46.903,44.474l29.882-29.188
	c0,0-29.687-34.251-42.039-42.733c-9.525-6.54-30.836-18.274-42.389-18.414C129.887,4.486,45.808,4.834,45.808,4.834z"/>
</svg>
