<?xml version="1.0" encoding="utf-8"?>
<!-- Generator: Adobe Illustrator 15.0.0, SVG Export Plug-In . SVG Version: 6.00 Build 0)  -->
<!DOCTYPE svg PUBLIC "-//W3C//DTD SVG 1.1//EN" "http://www.w3.org/Graphics/SVG/1.1/DTD/svg11.dtd">
<svg version="1.1" id="Layer_1" xmlns="http://www.w3.org/2000/svg" xmlns:xlink="http://www.w3.org/1999/xlink" x="0px" y="0px"
	 width="96px" height="96px" viewBox="0 0 96 96" enable-background="new 0 0 96 96" xml:space="preserve">
<g id="XMLID_2_">
	<path id="XMLID_18_" fill="#FFFFFF" d="M16.236,50.765c-0.136,0-0.243,0.104-0.26,0.255L15.5,54.63l0.476,3.548
		c0.021,0.15,0.124,0.254,0.26,0.254c0.132,0,0.239-0.105,0.26-0.252l0.563-3.55l-0.563-3.611
		C16.474,50.87,16.367,50.765,16.236,50.765L16.236,50.765z M18.909,48.792c-0.02-0.155-0.132-0.262-0.271-0.262
		c-0.138,0-0.251,0.109-0.271,0.262l-0.639,5.837l0.639,5.708c0.021,0.152,0.132,0.264,0.271,0.264c0.136,0,0.247-0.106,0.27-0.262
		l0.727-5.709L18.909,48.792z M28.979,43.406c-0.262,0-0.479,0.215-0.492,0.488l-0.509,10.74l0.509,6.94
		c0.021,0.272,0.229,0.486,0.492,0.486c0.261,0,0.477-0.215,0.492-0.487l0.575-6.941L29.47,43.893
		c-0.021-0.273-0.231-0.488-0.492-0.488V43.406z M23.767,47.14c-0.202,0-0.366,0.161-0.382,0.375l-0.573,7.116l0.573,6.885
		c0.02,0.213,0.181,0.374,0.382,0.374c0.199,0,0.363-0.161,0.381-0.374l0.651-6.885l-0.651-7.118
		C24.126,47.3,23.967,47.14,23.767,47.14z M34.274,62.06c0.325,0,0.59-0.263,0.603-0.598l0.5-6.824l-0.499-14.299
		c-0.02-0.335-0.277-0.597-0.602-0.597c-0.328,0-0.593,0.264-0.604,0.599l-0.442,14.297l0.442,6.827
		C33.692,61.797,33.947,62.06,34.274,62.06z M45.116,62.093c0.447,0,0.816-0.369,0.825-0.821v0.021v-0.021l0.348-6.628
		l-0.348-16.514c-0.02-0.452-0.377-0.821-0.825-0.821c-0.448,0-0.818,0.368-0.825,0.822L43.98,54.638l0.311,6.639
		C44.313,61.725,44.669,62.093,45.116,62.093z M39.654,62.067c0.389,0,0.704-0.313,0.713-0.712v0.021l0.424-6.72l-0.425-14.403
		c-0.02-0.398-0.324-0.71-0.713-0.71c-0.393,0-0.707,0.312-0.715,0.71l-0.377,14.403l0.378,6.719
		c0.02,0.395,0.322,0.706,0.714,0.706V62.067z M26.362,62.004c0.231,0,0.419-0.187,0.436-0.43l0.614-6.942l-0.614-6.604
		c-0.02-0.243-0.204-0.427-0.436-0.427c-0.234,0-0.422,0.185-0.437,0.431l-0.541,6.601l0.541,6.941
		C25.945,61.817,26.127,62.004,26.362,62.004z M21.192,61.622c0.169,0,0.306-0.132,0.326-0.317l0.689-6.674l-0.689-6.927
		c-0.021-0.184-0.157-0.317-0.326-0.317c-0.171,0-0.308,0.133-0.326,0.317l-0.606,6.927l0.606,6.672
		C20.888,61.488,21.021,61.622,21.192,61.622z M42.375,39.997c-0.423,0-0.762,0.336-0.771,0.767L41.26,54.641l0.344,6.678
		c0.021,0.425,0.347,0.762,0.771,0.762c0.422,0,0.759-0.336,0.769-0.767v0.021l0.386-6.678l-0.386-13.878
		c-0.021-0.429-0.347-0.766-0.769-0.766V39.997z M31.616,62.073c0.292,0,0.534-0.238,0.548-0.542l0.537-6.895L32.164,41.44
		c-0.021-0.305-0.255-0.543-0.548-0.543c-0.295,0-0.535,0.239-0.548,0.543l-0.475,13.196l0.476,6.896
		C31.088,61.835,31.321,62.073,31.616,62.073z M37.611,61.423v-0.021l0.461-6.78L37.611,39.84c-0.02-0.367-0.301-0.655-0.658-0.655
		c-0.359,0-0.649,0.288-0.659,0.655l-0.409,14.78l0.41,6.784c0.021,0.363,0.299,0.65,0.658,0.65c0.358,0,0.646-0.287,0.658-0.653
		V61.423z M72.506,46.118c-1.096,0-2.141,0.223-3.093,0.621c-0.636-7.206-6.679-12.857-14.049-12.857
		c-1.804,0-3.562,0.354-5.114,0.955c-0.604,0.233-0.764,0.475-0.77,0.94v25.376c0.02,0.488,0.386,0.896,0.863,0.944
		c0.021,0,22.019,0.021,22.161,0.021c4.415,0,7.995-3.579,7.995-7.996c0-4.415-3.579-7.996-7.994-7.996V46.118z M47.846,35.755
		c-0.48,0-0.874,0.394-0.881,0.879l-0.361,18.01l0.361,6.537c0.021,0.477,0.401,0.871,0.881,0.871c0.479,0,0.874-0.394,0.88-0.878
		v0.021l0.392-6.538l-0.392-18.013c-0.021-0.483-0.401-0.877-0.88-0.877V35.755z"/>
</g>
</svg>
