<?xml version="1.0" encoding="utf-8"?>
<!-- Generator: Adobe Illustrator 15.0.0, SVG Export Plug-In . SVG Version: 6.00 Build 0)  -->
<!DOCTYPE svg PUBLIC "-//W3C//DTD SVG 1.1//EN" "http://www.w3.org/Graphics/SVG/1.1/DTD/svg11.dtd">
<svg version="1.1" id="Layer_1" xmlns="http://www.w3.org/2000/svg" xmlns:xlink="http://www.w3.org/1999/xlink" x="0px" y="0px"
	 width="400px" height="173.768px" viewBox="-152.001 -21.884 400 173.768" enable-background="new -152.001 -21.884 400 173.768"
	 xml:space="preserve">
<g id="XMLID_2_">
	<path id="XMLID_18_" fill="#FFFFFF" d="M-147.473,82.02c-0.835,0-1.493,0.644-1.599,1.563l-2.93,22.219l2.93,21.833
		c0.129,0.926,0.763,1.563,1.599,1.563c0.814,0,1.473-0.637,1.602-1.55l3.465-21.846l-3.465-22.219
		C-146.006,82.663-146.664,82.02-147.473,82.02L-147.473,82.02z M-131.021,69.874c-0.123-0.956-0.814-1.61-1.667-1.61
		c-0.851,0-1.544,0.667-1.668,1.61l-3.933,35.921l3.933,35.127c0.129,0.938,0.812,1.629,1.668,1.629
		c0.835,0,1.518-0.649,1.662-1.617l4.471-35.133L-131.021,69.874z M-69.051,36.73c-1.614,0-2.948,1.322-3.029,3.005l-3.131,66.083
		l3.131,42.712c0.129,1.665,1.409,2.986,3.029,2.986c1.607,0,2.936-1.328,3.029-2.992l3.537-42.718l-3.546-66.084
		C-66.157,38.046-67.449,36.724-69.051,36.73L-69.051,36.73L-69.051,36.73z M-101.125,59.711c-1.244,0-2.254,0.986-2.353,2.309
		l-3.524,43.787l3.524,42.369c0.132,1.31,1.115,2.308,2.353,2.308c1.223,0,2.232-0.998,2.344-2.308l4.005-42.369l-4.005-43.8
		C-98.917,60.691-99.896,59.711-101.125,59.711z M-36.466,151.529c2.001,0,3.633-1.623,3.711-3.685l3.077-41.99l-3.071-88.001
		c-0.123-2.061-1.704-3.672-3.705-3.672c-2.016,0-3.648,1.623-3.717,3.684l-2.719,87.989l2.719,42.009
		C-40.047,149.906-38.476,151.529-36.466,151.529z M30.258,151.728c2.75,0,5.021-2.266,5.075-5.055v0.133v-0.133l2.143-40.782
		L35.333,4.259c-0.124-2.782-2.32-5.054-5.075-5.054c-2.759,0-5.037,2.266-5.079,5.061l-1.914,101.589l1.914,40.854
		C25.315,149.462,27.506,151.728,30.258,151.728z M-3.358,151.565c2.395,0,4.333-1.93,4.391-4.375v0.126l2.608-41.354L1.026,17.324
		c-0.123-2.446-1.995-4.369-4.39-4.369c-2.419,0-4.351,1.923-4.399,4.369l-2.32,88.639l2.326,41.348
		c0.123,2.428,1.98,4.345,4.393,4.345L-3.358,151.565L-3.358,151.565z M-85.157,151.181c1.421,0,2.582-1.154,2.684-2.645
		l3.78-42.724l-3.78-40.645c-0.123-1.484-1.256-2.62-2.684-2.62c-1.439,0-2.596,1.142-2.689,2.656l-3.33,40.62l3.33,42.718
		C-87.723,150.026-86.603,151.181-85.157,151.181z M-116.973,148.831c1.04,0,1.884-0.812,2.007-1.953l4.24-41.071l-4.24-42.628
		c-0.129-1.136-0.967-1.953-2.007-1.953c-1.052,0-1.896,0.817-2.004,1.953l-3.732,42.628l3.732,41.059
		C-118.842,148.007-118.024,148.831-116.973,148.831z M13.389,15.75c-2.603,0-4.691,2.067-4.745,4.718l-2.119,85.399l2.119,41.096
		c0.129,2.626,2.136,4.699,4.745,4.699c2.596,0,4.669-2.067,4.732-4.724v0.132l2.377-41.095L18.121,20.57
		c-0.129-2.65-2.136-4.718-4.732-4.718V15.75z M-52.821,151.607c1.797,0,3.284-1.467,3.372-3.336l3.305-42.441l-3.305-81.204
		c-0.129-1.881-1.569-3.341-3.372-3.341c-1.818,0-3.293,1.466-3.375,3.341l-2.924,81.204l2.93,42.441
		C-56.073,150.141-54.639,151.607-52.821,151.607z M-15.93,147.604v-0.126l2.84-41.727l-2.84-90.97
		c-0.123-2.26-1.851-4.027-4.047-4.027c-2.212,0-3.994,1.767-4.057,4.027l-2.518,90.958l2.524,41.75
		c0.129,2.236,1.839,4.003,4.051,4.003c2.202,0,3.975-1.767,4.047-4.026V147.604z M198.814,53.419
		c-6.742,0-13.173,1.37-19.032,3.822c-3.913-44.346-41.102-79.125-86.457-79.125c-11.101,0-21.93,2.182-31.474,5.878
		c-3.714,1.436-4.699,2.927-4.735,5.787v156.158c0.12,3.006,2.374,5.512,5.301,5.818c0.132,0,135.509,0.126,136.38,0.126
		c27.17,0,49.202-22.026,49.202-49.208c0-27.171-22.026-49.209-49.196-49.209L198.814,53.419L198.814,53.419z M47.059-10.357
		c-2.954,0-5.379,2.422-5.424,5.409l-2.221,110.839l2.221,40.229c0.129,2.938,2.47,5.354,5.424,5.354
		c2.947,0,5.376-2.422,5.418-5.402v0.132l2.41-40.235L52.477-4.882c-0.133-2.975-2.471-5.397-5.418-5.397V-10.357z"/>
</g>
</svg>
