<?xml version="1.0" encoding="utf-8"?>
<!-- Generator: Adobe Illustrator 15.0.0, SVG Export Plug-In . SVG Version: 6.00 Build 0)  -->
<!DOCTYPE svg PUBLIC "-//W3C//DTD SVG 1.1//EN" "http://www.w3.org/Graphics/SVG/1.1/DTD/svg11.dtd">
<svg version="1.1" id="Layer_1" xmlns="http://www.w3.org/2000/svg" xmlns:xlink="http://www.w3.org/1999/xlink" x="0px" y="0px"
	 width="400px" height="173.768px" viewBox="0 0 400 173.768" enable-background="new 0 0 400 173.768" xml:space="preserve">
<g>
	<g>
		<path fill="#FEFDFF" d="M257.6,20.624c-7.898,3.5-16.373,5.873-25.277,6.933c9.092-5.444,16.052-14.081,19.35-24.339
			c-8.528,5.042-17.942,8.703-27.974,10.688C215.667,5.337,204.241,0,191.569,0c-24.313,0-44.025,19.713-44.025,44.011
			c0,3.446,0.389,6.813,1.14,10.031c-36.583-1.837-69.021-19.364-90.731-45.997c-3.795,6.491-5.954,14.053-5.954,22.126
			c0,15.274,7.778,28.751,19.579,36.635c-7.214-0.241-14-2.225-19.94-5.525v0.55c0,21.322,15.18,39.117,35.308,43.166
			c-3.687,0.993-7.577,1.543-11.6,1.543c-2.842,0-5.592-0.281-8.287-0.818c5.605,17.5,21.858,30.226,41.115,30.575
			c-15.06,11.801-34.048,18.813-54.672,18.813c-3.554,0-7.054-0.213-10.5-0.603c19.485,12.513,42.617,19.807,67.479,19.807
			c80.983,0,125.249-67.076,125.249-125.249l-0.148-5.699C244.229,37.198,251.713,29.448,257.6,20.624z"/>
	</g>
</g>
</svg>
